<svg width="24" height="24" viewBox="0 0 24 24" fill="none" xmlns="http://www.w3.org/2000/svg">
  <path d="M3 4C3 3.44772 3.44772 3 4 3H6C6.55228 3 7 3.44772 7 4V20C7 20.5523 6.55228 21 6 21H4C3.44772 21 3 20.5523 3 20V4Z" fill="currentColor"/>
  <path d="M8 4C8 3.44772 8.44772 3 9 3H10C10.5523 3 11 3.44772 11 4V20C11 20.5523 10.5523 21 10 21H9C8.44772 21 8 20.5523 8 20V4Z" fill="currentColor"/>
  <path d="M12 4C12 3.44772 12.4477 3 13 3H14C14.5523 3 15 3.44772 15 4V20C15 20.5523 14.5523 21 14 21H13C12.4477 21 12 20.5523 12 20V4Z" fill="currentColor"/>
  <path d="M16 4C16 3.44772 16.4477 3 17 3H18C18.5523 3 19 3.44772 19 4V20C19 20.5523 18.5523 21 18 21H17C16.4477 21 16 20.5523 16 20V4Z" fill="currentColor"/>
  <path d="M20 4C20 3.44772 20.4477 3 21 3H22C22.5523 3 23 3.44772 23 4V20C23 20.5523 22.5523 21 22 21H21C20.4477 21 20 20.5523 20 20V4Z" fill="currentColor"/>
</svg>
